<?xml version="1.0" encoding="UTF-8"?><svg id="Layer_2" xmlns="http://www.w3.org/2000/svg" viewBox="0 0 436.35 187.6"><defs><style>.cls-1{font-family:Georgia, Georgia;font-size:57.85px;}.cls-1,.cls-2{fill:#026634;}.cls-3{fill:#fff;stroke:#026634;stroke-miterlimit:10;stroke-width:2.42px;}</style></defs><g id="Layer_1-2"><ellipse class="cls-3" cx="93.46" cy="93.8" rx="92.25" ry="92.59"/><path id="_" class="cls-2" d="M7.61,94.01c0,47.45,38.37,86.06,85.54,86.06s85.54-38.61,85.54-86.06S140.31,7.95,93.15,7.95,7.61,46.55,7.61,94.01Zm10.22-8.44h10.78l-8.39,8.44,8.39,8.44h-10.78c-.34-2.94-.54-5.41-.54-8.44s.2-5.5,.54-8.44Zm25.08-46.21l4.27-2.48,5.36,9.35-1.41,5.29-5.2,1.4-10.65-6.19,2.53-4.41,5.11-2.97Zm95.37-6.64l-5.27,9.17-3.09-11.61-11.38,3.07,5.3-9.11c5.14,2.3,9.98,5.14,14.45,8.48Zm30.71,61.29c0,2.85-.17,5.67-.47,8.44h-10.42l8.39-8.44-8.39-8.44h10.42c.3,2.77,.47,5.59,.47,8.44ZM21.11,82.28v-10.83l2.52-4.4,10.66,6.19,1.39,5.22-3.8,3.82h-10.78Zm12.55-32.7l7.83,4.55-11.46,3.09,3.07,11.55-7.84-4.55,8.4-14.63Zm39.26-3.92l3.94-3.96-1.75-3.06,3.79,1.02,2.82-2.83v3.6l5.34,1.44-5.34,1.44v6.87l-3.41-5.95-5.38,1.45Zm54.7-11.34l3.09,11.6-2.14,3.72-8.44-2.27-6.11-6.14,2.2-3.83,11.39-3.07Zm12.02,2.63l9.26,5.38,.02,.02,2.52,4.39-10.66,6.19-5.2-1.4-1.37-5.15,5.42-9.43Zm9.51,48.62h4.33l8.39,8.44-8.39,8.44h-4.33l-2.25-8.44,2.25-8.44Zm-76.36,67.85l5.12-1.38,3.8,3.83v12.38h-5.04l-9.28-5.39,5.4-9.44Zm-13.68,.28l-3.05-11.46,2.2-3.83,8.34,2.25,6.17,6.21-2.13,3.72-11.53,3.11Zm-21.3-8.03l-.15-.26-2.37-4.13,10.66-6.19,.07,.02h0l5.13,1.38,1.41,5.29-5.35,9.35-9.39-5.45Zm3.05-30.91l6.14,6.18,2.25,8.44-3.75,2.18-11.46-3.09,3.07-11.53,3.75-2.18Zm21.38-29.2h12.83l2.38,4.16-4.14,2.4-11.28-6.55h.2Zm-6.71,0l14.53,8.44-14.53,8.44h-10.07l-2.25-8.44,2.25-8.44h10.07Zm17.79,10.33l4.14,2.4-2.37,4.15h-13.03l11.27-6.55Zm8.58,1.2l-5.32-3.09,5.32-3.09-3.07-5.36h6.14v-6.18l5.32,3.09,3.08-5.36,3.07,5.36,5.32-3.09v6.19h6.15l-3.08,5.35,5.32,3.09-5.32,3.09,3.07,5.35h-6.14v6.18l-5.32-3.09-3.07,5.36-3.07-5.36-5.32,3.09v-6.18h-6.14l3.06-5.35Zm-30.09-17.49l-4.12-2.39,2.25-8.44,6.14-6.18,8.78,5.1,8.35,14.58h-16.79l-4.6-2.67h0Zm-10.95-6.36l-3.75-2.18-3.07-11.54,11.45-3.09,3.76,2.18-2.25,8.44-6.14,6.18Zm29.62-2.29l11.24,6.53v4.79h-4.76l-6.48-11.32Zm59.67-17.5l1.76-3.06,1.02,3.81,3.85,1.04-3.09,1.8,1.43,5.37-3.91-3.93-5.91,3.44,3.51-6.11-4.03-3.8,5.38,1.45Zm31.32,10.74l-7.84,4.55,3.07-11.54-11.47-3.09,7.84-4.55,8.4,14.63Zm-15.59,9.05l-6.14-6.18-2.25-8.44,3.75-2.18,11.46,3.09-3.07,11.53-3.75,2.18Zm-6.83,3.97l-8.71,5.06h-16.77l8.42-14.64,8.68-5.04,6.14,6.18,2.25,8.44Zm4.47,16.79l-2.25,8.44h-10.12l-14.49-8.43,14.54-8.44h10.07l2.25,8.44Zm17.92,29.85l-8.4,14.63-7.88-4.58,11.54-3.11-3.06-11.47,7.79,4.53Zm-28.52,9.94l-1.03,3.87-1.79-3.11-5.34,1.44,3.91-3.93h0v-.02l-3.42-5.94,5.92,3.45,3.94-3.96-1.44,5.41,3.05,1.77-3.79,1.02Zm-5.3,19.9l-11.46-3.09-2.17-3.78,6.11-6.15h.03l.03-.04,8.36-2.25,2.17,3.78-3.07,11.53Zm-42.65,14.55v-9.11l8.4,8.45,8.4-8.45v9.11h-16.79Zm-9.87-18.86l1.75-3.06-3.94-3.96,5.38,1.45,3.41-5.96v6.87l5.34,1.44-5.34,1.44v3.6l-2.82-2.84-3.79,1.02Zm1.61-9.41l-8.43-2.27-6.11-6.15,5.06-8.83,14.48-8.41v16.94l-5,8.73Zm-21.86-2.24l-1.05-3.94-3.85-1.04,3.11-1.72-1.45-5.45,3.91,3.93,6.03-3.5-3.55,6.2,3.95,3.78-5.3-1.43-1.81,3.17Zm15.71-20.74h0l-.11,.06,6.48-11.32h4.76v4.8l-11.14,6.47Zm38.72-18.7l4.12-2.4,11.24,6.54h-12.98l-2.38-4.15Zm43.4,30.17l-11.52,3.11-3.7-2.16,2.26-8.48,6.11-6.15,3.8,2.21,3.05,11.47Zm-15.9-9.24l-3.36,3.38h0l-2.8,2.82-8.66-5.04-8.42-14.67h16.72l8.77,5.1-2.24,8.4Zm-26.89,27.06l1.79,3.11-3.85-1.04-2.82,2.84v-3.6l-5.34-1.44,5.34-1.44v-6.94l3.45,6.01,5.34-1.44-3.91,3.93Zm-24.93-14.15l8.4-14.67,8.38,14.6v10.14l-8.39,2.26-8.39-2.26v-10.06Zm16.78-19.7v13.09l-6.51-11.33,2.38-4.16,4.13,2.4Zm22.82,19.09l-6.14,6.18-8.39,2.26-5.04-8.78v-16.87l14.55,8.47,5.01,8.74Zm-14.8-25.79l6.53,11.38-11.29-6.57v-4.81h4.76Zm-18.3,8.45l-6.51,11.38v-13.14l4.13-2.4,2.39,4.16Zm-6.51,35.95l8.35-2.25,.05,.02h.04l8.34,2.24v4.36l-8.39,8.44-8.39-8.44v-4.36Zm20.04,5.73l3.8-3.83,5.19,1.4,5.38,9.38-9.35,5.43h-5.03v-12.38Zm41.63-50.13h3.57l-2.82,2.84,1.05,3.93-3.14-1.83-3.88,3.9,1.37-5.36-5.98-3.48h6.96l1.43-5.37,1.43,5.37Zm-41.62-28.25l11.31-6.57-6.53,11.36h-4.78v-4.79Zm-7.39,.5l-2.38-4.15,6.5-11.3v13.05l-4.12,2.39Zm14.05,7.57h13.01l-11.27,6.55-4.12-2.4,2.39-4.15Zm6.76-35.26l6.17,6.21-5.01,8.71-14.58,8.47v-16.82l5.07-8.81,8.35,2.25Zm-25.06,20.24l-8.4-14.67v-10.06l8.39-2.26,8.39,2.26v10.17l-8.38,14.56Zm-1.89,3.3l-2.39,4.15-4.13-2.4v-13.14l6.51,11.38Zm-18.3,31.89l-8.35,14.58-8.77,5.1-6.14-6.18-2.25-8.44,8.71-5.06h16.8Zm-43.16,25.06l11.47,3.09-7.84,4.55-8.4-14.63,7.84-4.55-3.07,11.54Zm93.76,33l-5.32-9.16,11.46,3.09,3.07-11.53,5.24,9.13c-4.47,3.33-9.31,6.17-14.45,8.47Zm25.14-18.14l-9.34,5.43-5.38-9.38,1.39-5.22,5.13-1.38,10.69,6.22-2.49,4.33Zm16.68-39.93v10.85l-2.55,4.44-10.61-6.17-1.41-5.29,3.8-3.82h10.77Zm-18.97-23.46l-1.43,5.37-1.43-5.37h-6.9l5.72-3.32v-.14l-1.17-5.38,3.91,3.93,3.09-1.8-1.03,3.87,2.82,2.83h-3.57Zm-38.8-42.63l3.92-1.06-1.82,3.16,3.88,3.9-5.3-1.43-3.49,6.07v-7.01l-5.34-1.44,5.34-1.44v-3.59l2.82,2.84Zm-6.09-1.77l-8.39,2.26-8.39-2.26v-4.36l8.39-8.44,8.39,8.44v4.36Zm-20.05,18.88v16.94l-14.48-8.41-5.05-8.83,6.11-6.15,8.43-2.27,4.99,8.72Zm-25.03-3.31l5.3-1.43-3.95,3.78,3.55,6.21-6.04-3.51-3.91,3.93,1.43-5.37-3.1-1.8,3.86-1.04,1.05-3.94,1.81,3.17Zm-16.58,28.84h-3.57l2.82-2.83-1.03-3.87,3.09,1.79,3.91-3.94-1.41,5.39,5.95,3.46h-6.89l-1.43,5.37-1.43-5.37Zm-2.51,3.29l2.25,8.44-2.25,8.44h-4.33l-8.39-8.44,8.39-8.44h4.33Zm3.89,15l1.48,5.17h6.9l-5.98,3.47,1.43,5.37-3.91-3.93-3.09,1.8,1.03-3.87-2.82-2.84h3.58l1.38-5.17Zm-9.58,5.17l3.8,3.82-1.39,5.23-10.66,6.19-2.49-4.33-.04-.07v-10.83h10.78Zm16.53,49.85l5.33-9.31,3.05,11.45,11.53-3.11-5.42,9.36c-5.15-2.26-10.01-5.08-14.49-8.39Zm106.42-73.31l-3.8-3.82,1.39-5.23,10.66-6.19,2.49,4.33,.03,.06v10.85h-10.77ZM119.45,25.22l-5.37,9.34-5.26,1.42-3.8-3.83v-12.38h5.05l9.39,5.45Zm-17.69,3.65l-8.4-8.45-8.4,8.45v-9.11h16.79v9.11Zm-20.05-9.11v12.38l-3.8,3.83-5.12-1.38-5.41-9.44,9.27-5.38h5.06Zm-11.08,17.65l2.13,3.72-6.17,6.21-8.34,2.25-2.19-3.83,3.05-11.46,11.53,3.11Zm-2.3-4.03l-11.54-3.11-3.05,11.45-5.33-9.31c4.5-3.32,9.37-6.15,14.55-8.42l5.37,9.38Z"/><text class="cls-1" transform="translate(200.94 114.31) scale(1.02 1)"><tspan x="0" y="0">Mamluk.</tspan></text></g></svg>